# xmcd
#
# Track frame offsets:
#	150
#	17857
#	34244
#	47542
#	64177
#	80384
#	96625
#	113519
#	129359
#	145869
#	160657
#	173797
#	191414
#	204872
#	218134
#
# Disc length: 3103 seconds
# Revision: 4
# Processed by: cddbd v1.5.2PL0 Copyright (c) Steve Scherf et al.
# Submitted via: dBpowerAMP V12.0
#
DISCID=c60c1d0f
DTITLE=Luke Bryan - What Makes You Country
DYEAR=2017
DGENRE=Country
TTITLE0=What Makes You Country
TTITLE1=Out Of Nowhere Girl
TTITLE2=Light It Up
TTITLE3=Most People Are Good
TTITLE4=Sunrise, Sunburn, Sunset
TTITLE5=Bad Lovers
TTITLE6=Drinking Again
TTITLE7=Land Of A Million Songs
TTITLE8=Like You Say You Do
TTITLE9=Hooked On It
TTITLE10=She's A Hot One
TTITLE11=Hungover In A Hotel Room
TTITLE12=Pick It Up
TTITLE13=Driving This Thing
TTITLE14=Win Life
EXTD=
EXTT0=
EXTT1=
EXTT2=
EXTT3=
EXTT4=
EXTT5=
EXTT6=
EXTT7=
EXTT8=
EXTT9=
EXTT10=
EXTT11=
EXTT12=
EXTT13=
EXTT14=
PLAYORDER=
